<svg width="25" height="25" viewBox="0 0 25 25" fill="none" xmlns="http://www.w3.org/2000/svg">
<path d="M8.07294 22.9167C7.84724 22.9167 7.66061 22.8429 7.51304 22.6953C7.36547 22.5477 7.29169 22.3611 7.29169 22.1354V4.53125C7.29169 4.30556 7.36547 4.11893 7.51304 3.97136C7.66061 3.82379 7.84724 3.75 8.07294 3.75H10.4167V2.08334H14.5834V3.75H16.9271C17.1528 3.75 17.3394 3.82379 17.487 3.97136C17.6346 4.11893 17.7084 4.30556 17.7084 4.53125V22.1354C17.7084 22.3611 17.6346 22.5477 17.487 22.6953C17.3394 22.8429 17.1528 22.9167 16.9271 22.9167H8.07294ZM8.85419 9.89584H16.1459V5.3125H8.85419V9.89584Z" fill="#21AB82"/>
</svg>
