<svg width="23" height="23" viewBox="0 0 23 23" fill="none" xmlns="http://www.w3.org/2000/svg">
<mask id="mask0_18_20" style="mask-type:alpha" maskUnits="userSpaceOnUse" x="0" y="0" width="23" height="23">
<rect width="23" height="23" fill="#D9D9D9"/>
</mask>
<g mask="url(#mask0_18_20)">
<path d="M21.0834 15.3333C21.0834 15.6049 20.9914 15.8323 20.8074 16.0157C20.624 16.1997 20.3965 16.2917 20.125 16.2917H4.79169C4.52016 16.2917 4.2924 16.1997 4.1084 16.0157C3.92503 15.8323 3.83335 15.6049 3.83335 15.3333V13.4167H1.91669V9.58334H3.83335V7.66668C3.83335 7.39515 3.92503 7.16739 4.1084 6.98339C4.2924 6.80002 4.52016 6.70834 4.79169 6.70834H20.125C20.3965 6.70834 20.624 6.80002 20.8074 6.98339C20.9914 7.16739 21.0834 7.39515 21.0834 7.66668V15.3333ZM12.4584 14.375V8.62501H5.75002V14.375H12.4584Z" fill="#21AB82"/>
</g>
</svg>
