<svg width="20" height="20" viewBox="0 0 20 20" fill="none" xmlns="http://www.w3.org/2000/svg">
<path d="M8.77082 13.7917L14.6667 7.89585L13.7083 6.95835L8.77082 11.8959L6.27082 9.39585L5.33332 10.3334L8.77082 13.7917ZM9.99999 18.3334C8.8611 18.3334 7.78471 18.1146 6.77082 17.6771C5.75693 17.2396 4.87152 16.6424 4.11457 15.8854C3.35763 15.1285 2.76041 14.2431 2.32291 13.2292C1.88541 12.2153 1.66666 11.1389 1.66666 10C1.66666 8.84724 1.88541 7.76391 2.32291 6.75002C2.76041 5.73613 3.35763 4.85419 4.11457 4.10419C4.87152 3.35419 5.75693 2.76044 6.77082 2.32294C7.78471 1.88544 8.8611 1.66669 9.99999 1.66669C11.1528 1.66669 12.2361 1.88544 13.25 2.32294C14.2639 2.76044 15.1458 3.35419 15.8958 4.10419C16.6458 4.85419 17.2396 5.73613 17.6771 6.75002C18.1146 7.76391 18.3333 8.84724 18.3333 10C18.3333 11.1389 18.1146 12.2153 17.6771 13.2292C17.2396 14.2431 16.6458 15.1285 15.8958 15.8854C15.1458 16.6424 14.2639 17.2396 13.25 17.6771C12.2361 18.1146 11.1528 18.3334 9.99999 18.3334ZM9.99999 17.0834C11.9722 17.0834 13.6458 16.3924 15.0208 15.0104C16.3958 13.6285 17.0833 11.9584 17.0833 10C17.0833 8.0278 16.3958 6.35419 15.0208 4.97919C13.6458 3.60419 11.9722 2.91669 9.99999 2.91669C8.04166 2.91669 6.37152 3.60419 4.98957 4.97919C3.60763 6.35419 2.91666 8.0278 2.91666 10C2.91666 11.9584 3.60763 13.6285 4.98957 15.0104C6.37152 16.3924 8.04166 17.0834 9.99999 17.0834Z" fill="#21AB82"/>
</svg>
