<svg width="25" height="25" viewBox="0 0 25 25" fill="none" xmlns="http://www.w3.org/2000/svg">
<mask id="mask0_481_100" style="mask-type:alpha" maskUnits="userSpaceOnUse" x="0" y="0" width="25" height="25">
<rect width="25" height="25" fill="#D9D9D9"/>
</mask>
<g mask="url(#mask0_481_100)">
<path d="M12.5002 17.7084C12.7953 17.7084 13.0429 17.6084 13.2429 17.4084C13.4422 17.2091 13.5418 16.9618 13.5418 16.6667C13.5418 16.3716 13.4422 16.124 13.2429 15.924C13.0429 15.7247 12.7953 15.625 12.5002 15.625C12.205 15.625 11.9578 15.7247 11.7585 15.924C11.5585 16.124 11.4585 16.3716 11.4585 16.6667C11.4585 16.9618 11.5585 17.2091 11.7585 17.4084C11.9578 17.6084 12.205 17.7084 12.5002 17.7084ZM11.4585 13.5417H13.5418V7.29171H11.4585V13.5417ZM12.5002 22.9167C11.0592 22.9167 9.70502 22.6431 8.43766 22.0959C7.1703 21.5493 6.06787 20.8073 5.13037 19.8698C4.19287 18.9323 3.45086 17.8299 2.90433 16.5625C2.35711 15.2952 2.0835 13.941 2.0835 12.5C2.0835 11.0591 2.35711 9.7049 2.90433 8.43754C3.45086 7.17018 4.19287 6.06775 5.13037 5.13025C6.06787 4.19275 7.1703 3.45039 8.43766 2.90317C9.70502 2.35664 11.0592 2.08337 12.5002 2.08337C13.9411 2.08337 15.2953 2.35664 16.5627 2.90317C17.83 3.45039 18.9325 4.19275 19.87 5.13025C20.8075 6.06775 21.5495 7.17018 22.096 8.43754C22.6432 9.7049 22.9168 11.0591 22.9168 12.5C22.9168 13.941 22.6432 15.2952 22.096 16.5625C21.5495 17.8299 20.8075 18.9323 19.87 19.8698C18.9325 20.8073 17.83 21.5493 16.5627 22.0959C15.2953 22.6431 13.9411 22.9167 12.5002 22.9167ZM12.5002 20.8334C14.8266 20.8334 16.797 20.0261 18.4116 18.4115C20.0262 16.7969 20.8335 14.8264 20.8335 12.5C20.8335 10.1737 20.0262 8.20317 18.4116 6.58858C16.797 4.974 14.8266 4.16671 12.5002 4.16671C10.1738 4.16671 8.20329 4.974 6.5887 6.58858C4.97412 8.20317 4.16683 10.1737 4.16683 12.5C4.16683 14.8264 4.97412 16.7969 6.5887 18.4115C8.20329 20.0261 10.1738 20.8334 12.5002 20.8334Z" fill="#DD2E2E"/>
</g>
</svg>
