<svg width="37" height="110" viewBox="0 0 37 110" fill="none" xmlns="http://www.w3.org/2000/svg">
<g clip-path="url(#clip0_463_27)">
<path d="M37 2.07291H0V35.9099H37V2.07291Z" fill="#B8ECCD"/>
<path d="M37 35.9099H0V87.4992H37V35.9099Z" fill="#96B8AC"/>
<path d="M37 87.4992L21.166 108.677C19.8474 110.441 17.1526 110.441 15.8349 108.677L0 87.4992H37Z" fill="#7D968D"/>
<path d="M37 2.07292H0L0.545404 1.20847H36.4546L37 2.07292Z" fill="#AFDDC1"/>
<path d="M1.04048 0H35.9595C36.2326 0 36.4546 0.216718 36.4546 0.483385V1.20846H0.54541V0.483385C0.54541 0.216718 0.767367 0 1.04048 0Z" fill="#232323"/>
<path d="M21.0026 21.0966V21.9022C21.0026 21.5912 20.7435 21.3383 20.425 21.3383H17.8275C17.509 21.3383 17.2499 21.5912 17.2499 21.9022V21.0966C17.2499 20.7848 17.509 20.5326 17.8275 20.5326H20.425C20.7435 20.5326 21.0026 20.7848 21.0026 21.0966Z" fill="#232323"/>
<path d="M21.0026 21.9022V30.7272C21.0026 31.039 20.7435 31.2912 20.425 31.2912H17.8275C17.509 31.2912 17.2499 31.039 17.2499 30.7272V21.9022C17.2499 21.5912 17.509 21.3383 17.8275 21.3383H20.425C20.7435 21.3383 21.0026 21.5912 21.0026 21.9022Z" fill="#3D3D3D"/>
<path d="M19.1263 16.1934C20.1625 16.1934 21.0026 15.3732 21.0026 14.3614C21.0026 13.3496 20.1625 12.5294 19.1263 12.5294C18.09 12.5294 17.2499 13.3496 17.2499 14.3614C17.2499 15.3732 18.09 16.1934 19.1263 16.1934Z" fill="#3E9873"/>
</g>
<defs>
<clipPath id="clip0_463_27">
<rect width="37" height="110" fill="white"/>
</clipPath>
</defs>
</svg>
