<svg width="25" height="25" viewBox="0 0 25 25" fill="none" xmlns="http://www.w3.org/2000/svg">
<mask id="mask0_620_463" style="mask-type:alpha" maskUnits="userSpaceOnUse" x="0" y="0" width="25" height="25">
<rect width="25" height="25" fill="#D9D9D9"/>
</mask>
<g mask="url(#mask0_620_463)">
<path d="M5.625 20.4166C4.84375 19.6354 4.23194 18.7326 3.78958 17.7083C3.34653 16.684 3.125 15.625 3.125 14.5312C3.125 13.4375 3.33333 12.3566 3.75 11.2885C4.16667 10.2211 4.84375 9.21871 5.78125 8.28121C6.38889 7.67357 7.13993 7.15274 8.03437 6.71871C8.92812 6.28468 9.98681 5.94163 11.2104 5.68955C12.4347 5.43816 13.8326 5.28642 15.4042 5.23434C16.975 5.18225 18.7326 5.24302 20.6771 5.41663C20.816 7.25691 20.8594 8.94962 20.8073 10.4948C20.7552 12.0399 20.6118 13.4329 20.3771 14.6739C20.1431 15.9156 19.8135 17.0007 19.3885 17.9291C18.9628 18.8583 18.4375 19.6354 17.8125 20.2604C16.8924 21.1805 15.916 21.8531 14.8833 22.2781C13.85 22.7038 12.7951 22.9166 11.7188 22.9166C10.5903 22.9166 9.48785 22.6954 8.41146 22.2531C7.33507 21.81 6.40625 21.1979 5.625 20.4166ZM8.54167 20C9.04514 20.2951 9.5618 20.5076 10.0917 20.6375C10.6208 20.768 11.1632 20.8333 11.7188 20.8333C12.5174 20.8333 13.3073 20.6729 14.0885 20.352C14.8698 20.0305 15.6163 19.5139 16.3281 18.802C16.6406 18.4895 16.9573 18.0514 17.2781 17.4875C17.5997 16.9229 17.8778 16.1847 18.1125 15.2729C18.3465 14.3618 18.5243 13.2597 18.6458 11.9666C18.7674 10.6729 18.7847 9.13191 18.6979 7.34371C17.8472 7.30899 16.8882 7.2958 15.8208 7.30413C14.7528 7.31316 13.6892 7.3958 12.6302 7.55205C11.5712 7.7083 10.5642 7.96003 9.60938 8.30725C8.65451 8.65448 7.87326 9.13191 7.26562 9.73955C6.48437 10.5208 5.94618 11.2934 5.65104 12.0573C5.3559 12.8211 5.20833 13.559 5.20833 14.2708C5.20833 15.2951 5.40347 16.1934 5.79375 16.9656C6.18472 17.7385 6.52778 18.2812 6.82292 18.5937C7.55208 17.2048 8.51562 15.8722 9.71354 14.5958C10.9115 13.3201 12.309 12.2743 13.9062 11.4583C12.6562 12.552 11.567 13.7889 10.6385 15.1687C9.70937 16.5493 9.01042 18.1597 8.54167 20Z" fill="#21AB82"/>
</g>
</svg>
