<svg width="26" height="26" viewBox="0 0 26 26" fill="none" xmlns="http://www.w3.org/2000/svg">
<mask id="mask0_10_71" style="mask-type:alpha" maskUnits="userSpaceOnUse" x="0" y="0" width="26" height="26">
<rect width="26" height="26" fill="#D9D9D9"/>
</mask>
<g mask="url(#mask0_10_71)">
<path d="M4.33331 20.5833V18.4167H6.49998V10.8333C6.49998 9.33471 6.95137 8.00293 7.85415 6.83799C8.75692 5.67377 9.93054 4.9111 11.375 4.54999V3.79166C11.375 3.34027 11.5331 2.95677 11.8495 2.64116C12.1651 2.32482 12.5486 2.16666 13 2.16666C13.4514 2.16666 13.8349 2.32482 14.1505 2.64116C14.4668 2.95677 14.625 3.34027 14.625 3.79166V4.54999C16.0694 4.9111 17.243 5.67377 18.1458 6.83799C19.0486 8.00293 19.5 9.33471 19.5 10.8333V18.4167H21.6666V20.5833H4.33331ZM13 23.8333C12.4041 23.8333 11.8943 23.6213 11.4703 23.1974C11.0456 22.7727 10.8333 22.2625 10.8333 21.6667H15.1666C15.1666 22.2625 14.9547 22.7727 14.5307 23.1974C14.1061 23.6213 13.5958 23.8333 13 23.8333Z" fill="#BDBDBD"/>
</g>
</svg>
