<svg width="23" height="23" viewBox="0 0 23 23" fill="none" xmlns="http://www.w3.org/2000/svg">
<mask id="mask0_374_47" style="mask-type:alpha" maskUnits="userSpaceOnUse" x="0" y="0" width="23" height="23">
<rect width="23" height="23" fill="#D9D9D9"/>
</mask>
<g mask="url(#mask0_374_47)">
<path d="M10.5417 12.4583V2.875H12.4583V12.4583H10.5417ZM11.5 20.125C10.3181 20.125 9.20383 19.8976 8.15733 19.4427C7.11147 18.9871 6.19722 18.3681 5.41458 17.5854C4.63194 16.8028 4.01286 15.8885 3.55733 14.8427C3.10244 13.7962 2.875 12.6819 2.875 11.5C2.875 10.2222 3.13854 9.01632 3.66563 7.88229C4.19271 6.74826 4.93542 5.76597 5.89375 4.93542L7.23542 6.27708C6.46875 6.91597 5.86979 7.69063 5.43854 8.60104C5.00729 9.51146 4.79167 10.4778 4.79167 11.5C4.79167 13.3528 5.44653 14.934 6.75625 16.2438C8.06597 17.5535 9.64722 18.2083 11.5 18.2083C13.3687 18.2083 14.9538 17.5535 16.2552 16.2438C17.5573 14.934 18.2083 13.3528 18.2083 11.5C18.2083 10.4778 17.9965 9.51146 17.573 8.60104C17.15 7.69063 16.5472 6.91597 15.7646 6.27708L17.1062 4.93542C18.0646 5.76597 18.8073 6.74826 19.3344 7.88229C19.8615 9.01632 20.125 10.2222 20.125 11.5C20.125 12.6819 19.8976 13.7962 19.4427 14.8427C18.9871 15.8885 18.3722 16.8028 17.5979 17.5854C16.8229 18.3681 15.9125 18.9871 14.8666 19.4427C13.8201 19.8976 12.6979 20.125 11.5 20.125Z" fill="#21AB82"/>
</g>
</svg>
