<svg width="20" height="20" viewBox="0 0 20 20" fill="none" xmlns="http://www.w3.org/2000/svg">
<path d="M9.16668 12.5H10.8333V10.4166H12.9167V8.74998H10.8333V6.66665H9.16668V8.74998H7.08334V10.4166H9.16668V12.5ZM10 18.3125C8.05557 17.8264 6.45834 16.6979 5.20834 14.9271C3.95834 13.1562 3.33334 11.2153 3.33334 9.10415V4.14581L10 1.64581L16.6667 4.14581V9.10415C16.6667 11.2153 16.0417 13.1562 14.7917 14.9271C13.5417 16.6979 11.9445 17.8264 10 18.3125ZM10 17.0208C11.5972 16.493 12.8993 15.4965 13.9063 14.0312C14.9132 12.566 15.4167 10.9236 15.4167 9.10415V5.02081L10 2.97915L4.58334 5.02081V9.10415C4.58334 10.9236 5.08682 12.566 6.09376 14.0312C7.1007 15.4965 8.40279 16.493 10 17.0208Z" fill="#21AB82"/>
</svg>
