<svg width="25" height="25" viewBox="0 0 25 25" fill="none" xmlns="http://www.w3.org/2000/svg">
<mask id="mask0_18_185" style="mask-type:alpha" maskUnits="userSpaceOnUse" x="0" y="0" width="25" height="25">
<rect width="25" height="25" fill="#D9D9D9"/>
</mask>
<g mask="url(#mask0_18_185)">
<path d="M10.9375 16.1458H14.0625V13.5417H16.6667V10.4167H14.0625V7.81249H10.9375V10.4167H8.33335V13.5417H10.9375V16.1458ZM12.5 22.9167C10.0868 22.309 8.09481 20.9243 6.52398 18.7625C4.95245 16.6014 4.16669 14.2014 4.16669 11.5625V5.20833L12.5 2.08333L20.8334 5.20833V11.5625C20.8334 14.2014 20.0479 16.6014 18.4771 18.7625C16.9056 20.9243 14.9132 22.309 12.5 22.9167ZM12.5 20.7292C14.3056 20.1562 15.7986 19.0104 16.9792 17.2917C18.1597 15.5729 18.75 13.6632 18.75 11.5625V6.64062L12.5 4.29687L6.25002 6.64062V11.5625C6.25002 13.6632 6.8403 15.5729 8.02085 17.2917C9.20141 19.0104 10.6945 20.1562 12.5 20.7292Z" fill="white"/>
</g>
</svg>
