<svg width="25" height="25" viewBox="0 0 25 25" fill="none" xmlns="http://www.w3.org/2000/svg">
<mask id="mask0_18_177" style="mask-type:alpha" maskUnits="userSpaceOnUse" x="0" y="0" width="25" height="25">
<rect width="25" height="25" fill="#D9D9D9"/>
</mask>
<g mask="url(#mask0_18_177)">
<path d="M5.13025 19.8698C4.19275 18.9149 3.45074 17.808 2.90421 16.5489C2.35699 15.2906 2.08337 13.941 2.08337 12.5C2.08337 11.0416 2.35699 9.68297 2.90421 8.42394C3.45074 7.1656 4.19275 6.06769 5.13025 5.13019L6.61462 6.61456C5.85073 7.37845 5.25178 8.26387 4.81775 9.27081C4.38372 10.2778 4.16671 11.3541 4.16671 12.5C4.16671 13.6632 4.38372 14.7482 4.81775 15.7552C5.25178 16.7621 5.85073 17.6389 6.61462 18.3854L5.13025 19.8698ZM8.07296 16.9271C7.5174 16.3541 7.07469 15.6899 6.74483 14.9344C6.41497 14.1795 6.25004 13.368 6.25004 12.5C6.25004 11.6146 6.41497 10.7941 6.74483 10.0385C7.07469 9.28366 7.5174 8.62845 8.07296 8.0729L9.55733 9.55727C9.17539 9.93922 8.87574 10.3819 8.65837 10.8854C8.44171 11.3889 8.33337 11.9271 8.33337 12.5C8.33337 13.0729 8.44171 13.6111 8.65837 14.1146C8.87574 14.618 9.17539 15.0607 9.55733 15.4427L8.07296 16.9271ZM12.5 14.5833C11.9271 14.5833 11.4368 14.3791 11.0292 13.9708C10.6209 13.5632 10.4167 13.0729 10.4167 12.5C10.4167 11.9271 10.6209 11.4364 11.0292 11.0281C11.4368 10.6205 11.9271 10.4166 12.5 10.4166C13.073 10.4166 13.5636 10.6205 13.9719 11.0281C14.3796 11.4364 14.5834 11.9271 14.5834 12.5C14.5834 13.0729 14.3796 13.5632 13.9719 13.9708C13.5636 14.3791 13.073 14.5833 12.5 14.5833ZM16.9271 16.9271L15.4427 15.4427C15.8247 15.0607 16.1243 14.618 16.3417 14.1146C16.5584 13.6111 16.6667 13.0729 16.6667 12.5C16.6667 11.9271 16.5584 11.3889 16.3417 10.8854C16.1243 10.3819 15.8247 9.93922 15.4427 9.55727L16.9271 8.0729C17.4827 8.62845 17.9254 9.28366 18.2552 10.0385C18.5851 10.7941 18.75 11.6146 18.75 12.5C18.75 13.368 18.5851 14.1795 18.2552 14.9344C17.9254 15.6899 17.4827 16.3541 16.9271 16.9271ZM19.8698 19.8698L18.3855 18.3854C19.1493 17.6215 19.7483 16.7361 20.1823 15.7291C20.6164 14.7222 20.8334 13.6458 20.8334 12.5C20.8334 11.3368 20.6164 10.2517 20.1823 9.24477C19.7483 8.23783 19.1493 7.36109 18.3855 6.61456L19.8698 5.13019C20.8073 6.06769 21.5493 7.1656 22.0959 8.42394C22.6431 9.68297 22.9167 11.0416 22.9167 12.5C22.9167 13.941 22.6431 15.2906 22.0959 16.5489C21.5493 17.808 20.8073 18.9149 19.8698 19.8698Z" fill="white"/>
</g>
</svg>
