<svg width="25" height="25" viewBox="0 0 25 25" fill="none" xmlns="http://www.w3.org/2000/svg">
<mask id="mask0_397_106" style="mask-type:alpha" maskUnits="userSpaceOnUse" x="0" y="0" width="25" height="25">
<rect width="25" height="25" fill="#D9D9D9"/>
</mask>
<g mask="url(#mask0_397_106)">
<path d="M12.5 24.2708L9.01044 20.8333H4.16669V15.9896L0.729187 12.5L4.16669 9.01041V4.16666H9.01044L12.5 0.729164L15.9896 4.16666H20.8334V9.01041L24.2709 12.5L20.8334 15.9896V20.8333H15.9896L12.5 24.2708ZM12.5 21.3542L15.1042 18.75H18.75V15.1042L21.3542 12.5L18.75 9.89583V6.25H15.1042L12.5 3.64583L9.89585 6.25H6.25002V9.89583L3.64585 12.5L6.25002 15.1042V18.75H9.89585L12.5 21.3542ZM12.5 18.75C14.2361 18.75 15.7118 18.1424 16.9271 16.9271C18.1424 15.7118 18.75 14.2361 18.75 12.5C18.75 10.7639 18.1424 9.28819 16.9271 8.07291C15.7118 6.85764 14.2361 6.25 12.5 6.25C12.0486 6.25 11.5972 6.2934 11.1459 6.38021C10.6945 6.46701 10.2691 6.6059 9.86981 6.79687C10.9809 7.31771 11.8709 8.09444 12.5396 9.12708C13.2077 10.1604 13.5417 11.2847 13.5417 12.5C13.5417 13.7153 13.2077 14.8396 12.5396 15.8729C11.8709 16.9056 10.9809 17.6823 9.86981 18.2031C10.2691 18.3941 10.6945 18.533 11.1459 18.6198C11.5972 18.7066 12.0486 18.75 12.5 18.75Z" fill="#21AB82"/>
</g>
</svg>
