<svg width="25" height="25" viewBox="0 0 25 25" fill="none" xmlns="http://www.w3.org/2000/svg">
<mask id="mask0_374_51" style="mask-type:alpha" maskUnits="userSpaceOnUse" x="0" y="0" width="25" height="25">
<rect width="25" height="25" fill="#D9D9D9"/>
</mask>
<g mask="url(#mask0_374_51)">
<path d="M12.2911 22.9167C10.1013 22.9167 8.17468 22.1486 6.51116 20.6125C4.84694 19.0757 4.01483 16.9965 4.01483 14.375C4.01483 12.6389 4.70038 10.751 6.07148 8.71146C7.44189 6.67118 9.51509 4.46181 12.2911 2.08334C15.0671 4.46181 17.1406 6.67118 18.5117 8.71146C19.8821 10.751 20.5673 12.6389 20.5673 14.375C20.5673 16.9965 19.7352 19.0757 18.071 20.6125C16.4075 22.1486 14.4808 22.9167 12.2911 22.9167ZM12.2911 20.8333C14.0325 20.8333 15.5023 20.2344 16.7003 19.0365C17.8989 17.8385 18.4983 16.2847 18.4983 14.375C18.4983 13.1424 17.9896 11.7316 16.9723 10.1427C15.9551 8.55452 14.3946 6.7882 12.2911 4.84375C10.1875 6.7882 8.62712 8.55452 7.60983 10.1427C6.59254 11.7316 6.0839 13.1424 6.0839 14.375C6.0839 16.2847 6.68289 17.8385 7.88088 19.0365C9.07956 20.2344 10.5496 20.8333 12.2911 20.8333ZM12.5756 19.7917C12.7825 19.7743 12.9594 19.692 13.1063 19.5448C13.2525 19.3969 13.3256 19.2188 13.3256 19.0104C13.3256 18.7674 13.248 18.5722 13.0928 18.425C12.9377 18.2771 12.7394 18.2118 12.498 18.2292C11.7911 18.2813 11.041 18.0861 10.2479 17.6438C9.45475 17.2007 8.95472 16.3976 8.74782 15.2344C8.71333 15.0434 8.62264 14.8872 8.47573 14.7656C8.32952 14.6441 8.16158 14.5833 7.97192 14.5833C7.73053 14.5833 7.53224 14.6743 7.37706 14.8563C7.22188 15.0389 7.17015 15.2517 7.22188 15.4948C7.515 17.0747 8.20469 18.2031 9.29094 18.8802C10.3772 19.5573 11.4721 19.8611 12.5756 19.7917Z" fill="#21AB82"/>
</g>
</svg>
