<svg width="25" height="25" viewBox="0 0 25 25" fill="none" xmlns="http://www.w3.org/2000/svg">
<path d="M5.67708 21.875C4.96528 21.875 4.36198 21.6276 3.86719 21.1328C3.3724 20.638 3.125 20.0347 3.125 19.3229C3.125 18.6111 3.3724 18.0078 3.86719 17.513C4.36198 17.0182 4.96528 16.7708 5.67708 16.7708C6.38889 16.7708 6.99219 17.0182 7.48698 17.513C7.98177 18.0078 8.22917 18.6111 8.22917 19.3229C8.22917 20.0347 7.98177 20.638 7.48698 21.1328C6.99219 21.6276 6.38889 21.875 5.67708 21.875ZM18.4896 21.875C18.4896 19.7569 18.0859 17.7648 17.2786 15.8984C16.4714 14.0321 15.3733 12.4045 13.9844 11.0156C12.5955 9.62673 10.9679 8.52864 9.10156 7.72135C7.23524 6.91406 5.24306 6.51041 3.125 6.51041V4.16666C5.57292 4.16666 7.86892 4.63107 10.013 5.55989C12.1571 6.48871 14.0321 7.75607 15.638 9.36198C17.2439 10.9679 18.5113 12.8429 19.4401 14.987C20.3689 17.1311 20.8333 19.4271 20.8333 21.875H18.4896ZM12.2917 21.875C12.2917 19.1319 11.4497 16.8837 9.76563 15.1302C8.0816 13.3767 5.86806 12.5 3.125 12.5V10.1562C4.80903 10.1562 6.35417 10.4514 7.76042 11.0417C9.16667 11.6319 10.3776 12.4479 11.3932 13.4896C12.4089 14.5312 13.2031 15.7682 13.776 17.2005C14.349 18.6328 14.6354 20.191 14.6354 21.875H12.2917Z" fill="#21AB82"/>
</svg>
